#VRML V2.0 utf8
# Simplified model generated by make_wrl.py (datasheet dimensions)
Shape {
  appearance Appearance { material Material { diffuseColor 0.93 0.92 0.86 shininess 0.8 } }
  geometry IndexedFaceSet {
    solid FALSE
    creaseAngle 0.5
    coord Coordinate { point [
        -0.33465 0.15748 0.00000,
        0.33465 0.15748 0.00000,
        -0.33465 -0.15748 0.00000,
        0.33465 -0.15748 0.00000,
        -0.33465 0.15748 0.23622,
        0.33465 0.15748 0.23622,
        -0.33465 -0.15748 0.23622,
        0.33465 -0.15748 0.23622 ] }
    coordIndex [
        0 1 3 2 -1,
        4 5 7 6 -1,
        0 1 5 4 -1,
        2 3 7 6 -1,
        0 2 6 4 -1,
        1 3 7 5 -1,
        2 3 1 0 -1,
        6 7 5 4 -1,
        4 5 1 0 -1,
        6 7 3 2 -1,
        4 6 2 0 -1,
        5 7 3 1 -1 ]
  }
}
Shape {
  appearance Appearance { material Material { diffuseColor 0.83 0.68 0.21 shininess 0.6 } }
  geometry IndexedFaceSet {
    solid FALSE
    creaseAngle 0.5
    coord Coordinate { point [
        -0.33465 0.15748 0.00000,
        -0.23622 0.15748 0.00000,
        -0.33465 -0.15748 0.00000,
        -0.23622 -0.15748 0.00000,
        -0.33465 0.15748 0.04724,
        -0.23622 0.15748 0.04724,
        -0.33465 -0.15748 0.04724,
        -0.23622 -0.15748 0.04724 ] }
    coordIndex [
        0 1 3 2 -1,
        4 5 7 6 -1,
        0 1 5 4 -1,
        2 3 7 6 -1,
        0 2 6 4 -1,
        1 3 7 5 -1,
        2 3 1 0 -1,
        6 7 5 4 -1,
        4 5 1 0 -1,
        6 7 3 2 -1,
        4 6 2 0 -1,
        5 7 3 1 -1 ]
  }
}
Shape {
  appearance Appearance { material Material { diffuseColor 0.83 0.68 0.21 shininess 0.6 } }
  geometry IndexedFaceSet {
    solid FALSE
    creaseAngle 0.5
    coord Coordinate { point [
        0.23622 0.15748 0.00000,
        0.33465 0.15748 0.00000,
        0.23622 -0.15748 0.00000,
        0.33465 -0.15748 0.00000,
        0.23622 0.15748 0.04724,
        0.33465 0.15748 0.04724,
        0.23622 -0.15748 0.04724,
        0.33465 -0.15748 0.04724 ] }
    coordIndex [
        0 1 3 2 -1,
        4 5 7 6 -1,
        0 1 5 4 -1,
        2 3 7 6 -1,
        0 2 6 4 -1,
        1 3 7 5 -1,
        2 3 1 0 -1,
        6 7 5 4 -1,
        4 5 1 0 -1,
        6 7 3 2 -1,
        4 6 2 0 -1,
        5 7 3 1 -1 ]
  }
}
