#VRML V2.0 utf8
# Simplified model generated by make_wrl.py (datasheet dimensions)
Shape {
  appearance Appearance { material Material { diffuseColor 0.3 0.3 0.32 shininess 0.3 } }
  geometry IndexedFaceSet {
    solid FALSE
    creaseAngle 0.5
    coord Coordinate { point [
        -0.29528 0.29528 0.00000,
        0.29528 0.29528 0.00000,
        -0.29528 -0.29528 0.00000,
        0.29528 -0.29528 0.00000,
        -0.29528 0.29528 0.19685,
        0.29528 0.29528 0.19685,
        -0.29528 -0.29528 0.19685,
        0.29528 -0.29528 0.19685 ] }
    coordIndex [
        0 1 3 2 -1,
        4 5 7 6 -1,
        0 1 5 4 -1,
        2 3 7 6 -1,
        0 2 6 4 -1,
        1 3 7 5 -1,
        2 3 1 0 -1,
        6 7 5 4 -1,
        4 5 1 0 -1,
        6 7 3 2 -1,
        4 6 2 0 -1,
        5 7 3 1 -1 ]
  }
}
Shape {
  appearance Appearance { material Material { diffuseColor 0.7 0.72 0.75 shininess 0.3 } }
  geometry IndexedFaceSet {
    solid FALSE
    creaseAngle 0.5
    coord Coordinate { point [
        -0.11811 0.11811 0.19685,
        0.11811 0.11811 0.19685,
        -0.11811 -0.11811 0.19685,
        0.11811 -0.11811 0.19685,
        -0.11811 0.11811 0.20079,
        0.11811 0.11811 0.20079,
        -0.11811 -0.11811 0.20079,
        0.11811 -0.11811 0.20079 ] }
    coordIndex [
        0 1 3 2 -1,
        4 5 7 6 -1,
        0 1 5 4 -1,
        2 3 7 6 -1,
        0 2 6 4 -1,
        1 3 7 5 -1,
        2 3 1 0 -1,
        6 7 5 4 -1,
        4 5 1 0 -1,
        6 7 3 2 -1,
        4 6 2 0 -1,
        5 7 3 1 -1 ]
  }
}
Shape {
  appearance Appearance { material Material { diffuseColor 0.93 0.92 0.86 shininess 0.3 } }
  geometry IndexedFaceSet {
    solid FALSE
    creaseAngle 0.5
    coord Coordinate { point [
        -0.29528 0.24409 0.19685,
        -0.21654 0.24409 0.19685,
        -0.29528 0.20472 0.19685,
        -0.21654 0.20472 0.19685,
        -0.29528 0.24409 0.20079,
        -0.21654 0.24409 0.20079,
        -0.29528 0.20472 0.20079,
        -0.21654 0.20472 0.20079 ] }
    coordIndex [
        0 1 3 2 -1,
        4 5 7 6 -1,
        0 1 5 4 -1,
        2 3 7 6 -1,
        0 2 6 4 -1,
        1 3 7 5 -1,
        2 3 1 0 -1,
        6 7 5 4 -1,
        4 5 1 0 -1,
        6 7 3 2 -1,
        4 6 2 0 -1,
        5 7 3 1 -1 ]
  }
}
