#VRML V2.0 utf8
# Simplified model generated by make_wrl.py (datasheet dimensions)
Shape {
  appearance Appearance { material Material { diffuseColor 0.08 0.08 0.08 shininess 0.3 } }
  geometry IndexedFaceSet {
    solid FALSE
    creaseAngle 0.5
    coord Coordinate { point [
        -0.76772 1.00394 0.00000,
        0.76772 1.00394 0.00000,
        1.00394 0.76772 0.00000,
        1.00394 -0.76772 0.00000,
        0.76772 -1.00394 0.00000,
        -0.76772 -1.00394 0.00000,
        -1.00394 -0.76772 0.00000,
        -1.00394 0.76772 0.00000,
        -0.76772 1.00394 0.17717,
        0.76772 1.00394 0.17717,
        1.00394 0.76772 0.17717,
        1.00394 -0.76772 0.17717,
        0.76772 -1.00394 0.17717,
        -0.76772 -1.00394 0.17717,
        -1.00394 -0.76772 0.17717,
        -1.00394 0.76772 0.17717 ] }
    coordIndex [
        0 1 2 3 4 5 6 7 -1,
        8 9 10 11 12 13 14 15 -1,
        0 1 9 8 -1,
        1 2 10 9 -1,
        2 3 11 10 -1,
        3 4 12 11 -1,
        4 5 13 12 -1,
        5 6 14 13 -1,
        6 7 15 14 -1,
        7 0 8 15 -1,
        7 6 5 4 3 2 1 0 -1,
        15 14 13 12 11 10 9 8 -1,
        8 9 1 0 -1,
        9 10 2 1 -1,
        10 11 3 2 -1,
        11 12 4 3 -1,
        12 13 5 4 -1,
        13 14 6 5 -1,
        14 15 7 6 -1,
        15 8 0 7 -1 ]
  }
}
Shape {
  appearance Appearance { material Material { diffuseColor 0.8 0.81 0.83 shininess 0.7 } }
  geometry IndexedFaceSet {
    solid FALSE
    creaseAngle 0.5
    coord Coordinate { point [
        -0.76772 1.00394 0.17717,
        0.76772 1.00394 0.17717,
        1.00394 0.76772 0.17717,
        1.00394 -0.76772 0.17717,
        0.76772 -1.00394 0.17717,
        -0.76772 -1.00394 0.17717,
        -1.00394 -0.76772 0.17717,
        -1.00394 0.76772 0.17717,
        -0.76772 1.00394 0.39370,
        0.76772 1.00394 0.39370,
        1.00394 0.76772 0.39370,
        1.00394 -0.76772 0.39370,
        0.76772 -1.00394 0.39370,
        -0.76772 -1.00394 0.39370,
        -1.00394 -0.76772 0.39370,
        -1.00394 0.76772 0.39370 ] }
    coordIndex [
        0 1 2 3 4 5 6 7 -1,
        8 9 10 11 12 13 14 15 -1,
        0 1 9 8 -1,
        1 2 10 9 -1,
        2 3 11 10 -1,
        3 4 12 11 -1,
        4 5 13 12 -1,
        5 6 14 13 -1,
        6 7 15 14 -1,
        7 0 8 15 -1,
        7 6 5 4 3 2 1 0 -1,
        15 14 13 12 11 10 9 8 -1,
        8 9 1 0 -1,
        9 10 2 1 -1,
        10 11 3 2 -1,
        11 12 4 3 -1,
        12 13 5 4 -1,
        13 14 6 5 -1,
        14 15 7 6 -1,
        15 8 0 7 -1 ]
  }
}
Shape {
  appearance Appearance { material Material { diffuseColor 0.86 0.72 0.42 shininess 0.5 } }
  geometry IndexedFaceSet {
    solid FALSE
    creaseAngle 0.5
    coord Coordinate { point [
        0.49213 -0.00000 0.39370,
        0.47536 -0.12737 0.39370,
        0.42619 -0.24606 0.39370,
        0.34799 -0.34799 0.39370,
        0.24606 -0.42619 0.39370,
        0.12737 -0.47536 0.39370,
        0.00000 -0.49213 0.39370,
        -0.12737 -0.47536 0.39370,
        -0.24606 -0.42619 0.39370,
        -0.34799 -0.34799 0.39370,
        -0.42619 -0.24606 0.39370,
        -0.47536 -0.12737 0.39370,
        -0.49213 -0.00000 0.39370,
        -0.47536 0.12737 0.39370,
        -0.42619 0.24606 0.39370,
        -0.34799 0.34799 0.39370,
        -0.24606 0.42619 0.39370,
        -0.12737 0.47536 0.39370,
        -0.00000 0.49213 0.39370,
        0.12737 0.47536 0.39370,
        0.24606 0.42619 0.39370,
        0.34799 0.34799 0.39370,
        0.42619 0.24606 0.39370,
        0.47536 0.12737 0.39370,
        0.49213 -0.00000 0.59055,
        0.47536 -0.12737 0.59055,
        0.42619 -0.24606 0.59055,
        0.34799 -0.34799 0.59055,
        0.24606 -0.42619 0.59055,
        0.12737 -0.47536 0.59055,
        0.00000 -0.49213 0.59055,
        -0.12737 -0.47536 0.59055,
        -0.24606 -0.42619 0.59055,
        -0.34799 -0.34799 0.59055,
        -0.42619 -0.24606 0.59055,
        -0.47536 -0.12737 0.59055,
        -0.49213 -0.00000 0.59055,
        -0.47536 0.12737 0.59055,
        -0.42619 0.24606 0.59055,
        -0.34799 0.34799 0.59055,
        -0.24606 0.42619 0.59055,
        -0.12737 0.47536 0.59055,
        -0.00000 0.49213 0.59055,
        0.12737 0.47536 0.59055,
        0.24606 0.42619 0.59055,
        0.34799 0.34799 0.59055,
        0.42619 0.24606 0.59055,
        0.47536 0.12737 0.59055 ] }
    coordIndex [
        0 1 2 3 4 5 6 7 8 9 10 11 12 13 14 15 16 17 18 19 20 21 22 23 -1,
        24 25 26 27 28 29 30 31 32 33 34 35 36 37 38 39 40 41 42 43 44 45 46 47 -1,
        0 1 25 24 -1,
        1 2 26 25 -1,
        2 3 27 26 -1,
        3 4 28 27 -1,
        4 5 29 28 -1,
        5 6 30 29 -1,
        6 7 31 30 -1,
        7 8 32 31 -1,
        8 9 33 32 -1,
        9 10 34 33 -1,
        10 11 35 34 -1,
        11 12 36 35 -1,
        12 13 37 36 -1,
        13 14 38 37 -1,
        14 15 39 38 -1,
        15 16 40 39 -1,
        16 17 41 40 -1,
        17 18 42 41 -1,
        18 19 43 42 -1,
        19 20 44 43 -1,
        20 21 45 44 -1,
        21 22 46 45 -1,
        22 23 47 46 -1,
        23 0 24 47 -1,
        23 22 21 20 19 18 17 16 15 14 13 12 11 10 9 8 7 6 5 4 3 2 1 0 -1,
        47 46 45 44 43 42 41 40 39 38 37 36 35 34 33 32 31 30 29 28 27 26 25 24 -1,
        24 25 1 0 -1,
        25 26 2 1 -1,
        26 27 3 2 -1,
        27 28 4 3 -1,
        28 29 5 4 -1,
        29 30 6 5 -1,
        30 31 7 6 -1,
        31 32 8 7 -1,
        32 33 9 8 -1,
        33 34 10 9 -1,
        34 35 11 10 -1,
        35 36 12 11 -1,
        36 37 13 12 -1,
        37 38 14 13 -1,
        38 39 15 14 -1,
        39 40 16 15 -1,
        40 41 17 16 -1,
        41 42 18 17 -1,
        42 43 19 18 -1,
        43 44 20 19 -1,
        44 45 21 20 -1,
        45 46 22 21 -1,
        46 47 23 22 -1,
        47 24 0 23 -1 ]
  }
}
Shape {
  appearance Appearance { material Material { diffuseColor 0.55 0.56 0.58 shininess 0.6 } }
  geometry IndexedFaceSet {
    solid FALSE
    creaseAngle 0.5
    coord Coordinate { point [
        -1.35827 0.85630 0.00000,
        -1.00394 0.85630 0.00000,
        -1.35827 0.62008 0.00000,
        -1.00394 0.62008 0.00000,
        -1.35827 0.85630 0.07874,
        -1.00394 0.85630 0.07874,
        -1.35827 0.62008 0.07874,
        -1.00394 0.62008 0.07874 ] }
    coordIndex [
        0 1 3 2 -1,
        4 5 7 6 -1,
        0 1 5 4 -1,
        2 3 7 6 -1,
        0 2 6 4 -1,
        1 3 7 5 -1,
        2 3 1 0 -1,
        6 7 5 4 -1,
        4 5 1 0 -1,
        6 7 3 2 -1,
        4 6 2 0 -1,
        5 7 3 1 -1 ]
  }
}
Shape {
  appearance Appearance { material Material { diffuseColor 0.55 0.56 0.58 shininess 0.6 } }
  geometry IndexedFaceSet {
    solid FALSE
    creaseAngle 0.5
    coord Coordinate { point [
        -1.35827 -0.62008 0.00000,
        -1.00394 -0.62008 0.00000,
        -1.35827 -0.85630 0.00000,
        -1.00394 -0.85630 0.00000,
        -1.35827 -0.62008 0.07874,
        -1.00394 -0.62008 0.07874,
        -1.35827 -0.85630 0.07874,
        -1.00394 -0.85630 0.07874 ] }
    coordIndex [
        0 1 3 2 -1,
        4 5 7 6 -1,
        0 1 5 4 -1,
        2 3 7 6 -1,
        0 2 6 4 -1,
        1 3 7 5 -1,
        2 3 1 0 -1,
        6 7 5 4 -1,
        4 5 1 0 -1,
        6 7 3 2 -1,
        4 6 2 0 -1,
        5 7 3 1 -1 ]
  }
}
Shape {
  appearance Appearance { material Material { diffuseColor 0.55 0.56 0.58 shininess 0.6 } }
  geometry IndexedFaceSet {
    solid FALSE
    creaseAngle 0.5
    coord Coordinate { point [
        1.00394 0.85630 0.00000,
        1.35827 0.85630 0.00000,
        1.00394 0.62008 0.00000,
        1.35827 0.62008 0.00000,
        1.00394 0.85630 0.07874,
        1.35827 0.85630 0.07874,
        1.00394 0.62008 0.07874,
        1.35827 0.62008 0.07874 ] }
    coordIndex [
        0 1 3 2 -1,
        4 5 7 6 -1,
        0 1 5 4 -1,
        2 3 7 6 -1,
        0 2 6 4 -1,
        1 3 7 5 -1,
        2 3 1 0 -1,
        6 7 5 4 -1,
        4 5 1 0 -1,
        6 7 3 2 -1,
        4 6 2 0 -1,
        5 7 3 1 -1 ]
  }
}
Shape {
  appearance Appearance { material Material { diffuseColor 0.55 0.56 0.58 shininess 0.6 } }
  geometry IndexedFaceSet {
    solid FALSE
    creaseAngle 0.5
    coord Coordinate { point [
        1.00394 -0.62008 0.00000,
        1.35827 -0.62008 0.00000,
        1.00394 -0.85630 0.00000,
        1.35827 -0.85630 0.00000,
        1.00394 -0.62008 0.07874,
        1.35827 -0.62008 0.07874,
        1.00394 -0.85630 0.07874,
        1.35827 -0.85630 0.07874 ] }
    coordIndex [
        0 1 3 2 -1,
        4 5 7 6 -1,
        0 1 5 4 -1,
        2 3 7 6 -1,
        0 2 6 4 -1,
        1 3 7 5 -1,
        2 3 1 0 -1,
        6 7 5 4 -1,
        4 5 1 0 -1,
        6 7 3 2 -1,
        4 6 2 0 -1,
        5 7 3 1 -1 ]
  }
}
