#VRML V2.0 utf8
# Simplified model generated by make_wrl.py (datasheet dimensions)
Shape {
  appearance Appearance { material Material { diffuseColor 0.55 0.56 0.58 shininess 0.2 } }
  geometry IndexedFaceSet {
    solid FALSE
    creaseAngle 0.5
    coord Coordinate { point [
        1.11811 1.43701 0.00000,
        1.28420 1.43701 0.02187,
        1.43898 1.43701 0.08598,
        1.57188 1.43701 0.18796,
        1.67387 1.43701 0.32087,
        1.73798 1.43701 0.47564,
        1.75984 1.43701 0.64173,
        1.73798 1.43701 0.80782,
        1.67387 1.43701 0.96260,
        1.57188 1.43701 1.09551,
        1.43898 1.43701 1.19749,
        1.28420 1.43701 1.26160,
        1.11811 1.43701 1.28346,
        -1.11811 1.43701 1.28346,
        -1.28420 1.43701 1.26160,
        -1.43898 1.43701 1.19749,
        -1.57188 1.43701 1.09551,
        -1.67387 1.43701 0.96260,
        -1.73798 1.43701 0.80782,
        -1.75984 1.43701 0.64173,
        -1.73798 1.43701 0.47564,
        -1.67387 1.43701 0.32087,
        -1.57188 1.43701 0.18796,
        -1.43898 1.43701 0.08598,
        -1.28420 1.43701 0.02187,
        -1.11811 1.43701 0.00000,
        1.11811 -1.43701 0.00000,
        1.28420 -1.43701 0.02187,
        1.43898 -1.43701 0.08598,
        1.57188 -1.43701 0.18796,
        1.67387 -1.43701 0.32087,
        1.73798 -1.43701 0.47564,
        1.75984 -1.43701 0.64173,
        1.73798 -1.43701 0.80782,
        1.67387 -1.43701 0.96260,
        1.57188 -1.43701 1.09551,
        1.43898 -1.43701 1.19749,
        1.28420 -1.43701 1.26160,
        1.11811 -1.43701 1.28346,
        -1.11811 -1.43701 1.28346,
        -1.28420 -1.43701 1.26160,
        -1.43898 -1.43701 1.19749,
        -1.57188 -1.43701 1.09551,
        -1.67387 -1.43701 0.96260,
        -1.73798 -1.43701 0.80782,
        -1.75984 -1.43701 0.64173,
        -1.73798 -1.43701 0.47564,
        -1.67387 -1.43701 0.32087,
        -1.57188 -1.43701 0.18796,
        -1.43898 -1.43701 0.08598,
        -1.28420 -1.43701 0.02187,
        -1.11811 -1.43701 0.00000 ] }
    coordIndex [
        0 1 2 3 4 5 6 7 8 9 10 11 12 13 14 15 16 17 18 19 20 21 22 23 24 25 -1,
        26 27 28 29 30 31 32 33 34 35 36 37 38 39 40 41 42 43 44 45 46 47 48 49 50 51 -1,
        0 1 27 26 -1,
        1 2 28 27 -1,
        2 3 29 28 -1,
        3 4 30 29 -1,
        4 5 31 30 -1,
        5 6 32 31 -1,
        6 7 33 32 -1,
        7 8 34 33 -1,
        8 9 35 34 -1,
        9 10 36 35 -1,
        10 11 37 36 -1,
        11 12 38 37 -1,
        12 13 39 38 -1,
        13 14 40 39 -1,
        14 15 41 40 -1,
        15 16 42 41 -1,
        16 17 43 42 -1,
        17 18 44 43 -1,
        18 19 45 44 -1,
        19 20 46 45 -1,
        20 21 47 46 -1,
        21 22 48 47 -1,
        22 23 49 48 -1,
        23 24 50 49 -1,
        24 25 51 50 -1,
        25 0 26 51 -1,
        25 24 23 22 21 20 19 18 17 16 15 14 13 12 11 10 9 8 7 6 5 4 3 2 1 0 -1,
        51 50 49 48 47 46 45 44 43 42 41 40 39 38 37 36 35 34 33 32 31 30 29 28 27 26 -1,
        26 27 1 0 -1,
        27 28 2 1 -1,
        28 29 3 2 -1,
        29 30 4 3 -1,
        30 31 5 4 -1,
        31 32 6 5 -1,
        32 33 7 6 -1,
        33 34 8 7 -1,
        34 35 9 8 -1,
        35 36 10 9 -1,
        36 37 11 10 -1,
        37 38 12 11 -1,
        38 39 13 12 -1,
        39 40 14 13 -1,
        40 41 15 14 -1,
        41 42 16 15 -1,
        42 43 17 16 -1,
        43 44 18 17 -1,
        44 45 19 18 -1,
        45 46 20 19 -1,
        46 47 21 20 -1,
        47 48 22 21 -1,
        48 49 23 22 -1,
        49 50 24 23 -1,
        50 51 25 24 -1,
        51 26 0 25 -1 ]
  }
}
Shape {
  appearance Appearance { material Material { diffuseColor 0.08 0.08 0.08 shininess 0.3 } }
  geometry IndexedFaceSet {
    solid FALSE
    creaseAngle 0.5
    coord Coordinate { point [
        1.13780 -1.44094 0.13780,
        1.26822 -1.44094 0.15497,
        1.38976 -1.44094 0.20531,
        1.49413 -1.44094 0.28540,
        1.57422 -1.44094 0.38976,
        1.62456 -1.44094 0.51130,
        1.64173 -1.44094 0.64173,
        1.62456 -1.44094 0.77216,
        1.57422 -1.44094 0.89370,
        1.49413 -1.44094 0.99807,
        1.38976 -1.44094 1.07815,
        1.26822 -1.44094 1.12850,
        1.13780 -1.44094 1.14567,
        -1.13780 -1.44094 1.14567,
        -1.26822 -1.44094 1.12850,
        -1.38976 -1.44094 1.07815,
        -1.49413 -1.44094 0.99807,
        -1.57422 -1.44094 0.89370,
        -1.62456 -1.44094 0.77216,
        -1.64173 -1.44094 0.64173,
        -1.62456 -1.44094 0.51130,
        -1.57422 -1.44094 0.38976,
        -1.49413 -1.44094 0.28540,
        -1.38976 -1.44094 0.20531,
        -1.26822 -1.44094 0.15497,
        -1.13780 -1.44094 0.13780,
        1.13780 -1.44488 0.13780,
        1.26822 -1.44488 0.15497,
        1.38976 -1.44488 0.20531,
        1.49413 -1.44488 0.28540,
        1.57422 -1.44488 0.38976,
        1.62456 -1.44488 0.51130,
        1.64173 -1.44488 0.64173,
        1.62456 -1.44488 0.77216,
        1.57422 -1.44488 0.89370,
        1.49413 -1.44488 0.99807,
        1.38976 -1.44488 1.07815,
        1.26822 -1.44488 1.12850,
        1.13780 -1.44488 1.14567,
        -1.13780 -1.44488 1.14567,
        -1.26822 -1.44488 1.12850,
        -1.38976 -1.44488 1.07815,
        -1.49413 -1.44488 0.99807,
        -1.57422 -1.44488 0.89370,
        -1.62456 -1.44488 0.77216,
        -1.64173 -1.44488 0.64173,
        -1.62456 -1.44488 0.51130,
        -1.57422 -1.44488 0.38976,
        -1.49413 -1.44488 0.28540,
        -1.38976 -1.44488 0.20531,
        -1.26822 -1.44488 0.15497,
        -1.13780 -1.44488 0.13780 ] }
    coordIndex [
        0 1 2 3 4 5 6 7 8 9 10 11 12 13 14 15 16 17 18 19 20 21 22 23 24 25 -1,
        26 27 28 29 30 31 32 33 34 35 36 37 38 39 40 41 42 43 44 45 46 47 48 49 50 51 -1,
        0 1 27 26 -1,
        1 2 28 27 -1,
        2 3 29 28 -1,
        3 4 30 29 -1,
        4 5 31 30 -1,
        5 6 32 31 -1,
        6 7 33 32 -1,
        7 8 34 33 -1,
        8 9 35 34 -1,
        9 10 36 35 -1,
        10 11 37 36 -1,
        11 12 38 37 -1,
        12 13 39 38 -1,
        13 14 40 39 -1,
        14 15 41 40 -1,
        15 16 42 41 -1,
        16 17 43 42 -1,
        17 18 44 43 -1,
        18 19 45 44 -1,
        19 20 46 45 -1,
        20 21 47 46 -1,
        21 22 48 47 -1,
        22 23 49 48 -1,
        23 24 50 49 -1,
        24 25 51 50 -1,
        25 0 26 51 -1,
        25 24 23 22 21 20 19 18 17 16 15 14 13 12 11 10 9 8 7 6 5 4 3 2 1 0 -1,
        51 50 49 48 47 46 45 44 43 42 41 40 39 38 37 36 35 34 33 32 31 30 29 28 27 26 -1,
        26 27 1 0 -1,
        27 28 2 1 -1,
        28 29 3 2 -1,
        29 30 4 3 -1,
        30 31 5 4 -1,
        31 32 6 5 -1,
        32 33 7 6 -1,
        33 34 8 7 -1,
        34 35 9 8 -1,
        35 36 10 9 -1,
        36 37 11 10 -1,
        37 38 12 11 -1,
        38 39 13 12 -1,
        39 40 14 13 -1,
        40 41 15 14 -1,
        41 42 16 15 -1,
        42 43 17 16 -1,
        43 44 18 17 -1,
        44 45 19 18 -1,
        45 46 20 19 -1,
        46 47 21 20 -1,
        47 48 22 21 -1,
        48 49 23 22 -1,
        49 50 24 23 -1,
        50 51 25 24 -1,
        51 26 0 25 -1 ]
  }
}
Shape {
  appearance Appearance { material Material { diffuseColor 0.3 0.3 0.32 shininess 0.3 } }
  geometry IndexedFaceSet {
    solid FALSE
    creaseAngle 0.5
    coord Coordinate { point [
        -1.29921 -1.25984 0.57874,
        1.29921 -1.25984 0.57874,
        -1.29921 -1.44882 0.57874,
        1.29921 -1.44882 0.57874,
        -1.29921 -1.25984 0.70472,
        1.29921 -1.25984 0.70472,
        -1.29921 -1.44882 0.70472,
        1.29921 -1.44882 0.70472 ] }
    coordIndex [
        0 1 3 2 -1,
        4 5 7 6 -1,
        0 1 5 4 -1,
        2 3 7 6 -1,
        0 2 6 4 -1,
        1 3 7 5 -1,
        2 3 1 0 -1,
        6 7 5 4 -1,
        4 5 1 0 -1,
        6 7 3 2 -1,
        4 6 2 0 -1,
        5 7 3 1 -1 ]
  }
}
Shape {
  appearance Appearance { material Material { diffuseColor 0.83 0.68 0.21 shininess 0.6 } }
  geometry IndexedFaceSet {
    solid FALSE
    creaseAngle 0.5
    coord Coordinate { point [
        -1.31890 1.75197 0.00000,
        -1.24016 1.75197 0.00000,
        -1.31890 1.43701 0.00000,
        -1.24016 1.43701 0.00000,
        -1.31890 1.75197 0.04724,
        -1.24016 1.75197 0.04724,
        -1.31890 1.43701 0.04724,
        -1.24016 1.43701 0.04724 ] }
    coordIndex [
        0 1 3 2 -1,
        4 5 7 6 -1,
        0 1 5 4 -1,
        2 3 7 6 -1,
        0 2 6 4 -1,
        1 3 7 5 -1,
        2 3 1 0 -1,
        6 7 5 4 -1,
        4 5 1 0 -1,
        6 7 3 2 -1,
        4 6 2 0 -1,
        5 7 3 1 -1 ]
  }
}
Shape {
  appearance Appearance { material Material { diffuseColor 0.83 0.68 0.21 shininess 0.6 } }
  geometry IndexedFaceSet {
    solid FALSE
    creaseAngle 0.5
    coord Coordinate { point [
        -1.00394 1.75197 0.00000,
        -0.92520 1.75197 0.00000,
        -1.00394 1.43701 0.00000,
        -0.92520 1.43701 0.00000,
        -1.00394 1.75197 0.04724,
        -0.92520 1.75197 0.04724,
        -1.00394 1.43701 0.04724,
        -0.92520 1.43701 0.04724 ] }
    coordIndex [
        0 1 3 2 -1,
        4 5 7 6 -1,
        0 1 5 4 -1,
        2 3 7 6 -1,
        0 2 6 4 -1,
        1 3 7 5 -1,
        2 3 1 0 -1,
        6 7 5 4 -1,
        4 5 1 0 -1,
        6 7 3 2 -1,
        4 6 2 0 -1,
        5 7 3 1 -1 ]
  }
}
Shape {
  appearance Appearance { material Material { diffuseColor 0.83 0.68 0.21 shininess 0.6 } }
  geometry IndexedFaceSet {
    solid FALSE
    creaseAngle 0.5
    coord Coordinate { point [
        -0.72835 1.75197 0.00000,
        -0.64961 1.75197 0.00000,
        -0.72835 1.43701 0.00000,
        -0.64961 1.43701 0.00000,
        -0.72835 1.75197 0.04724,
        -0.64961 1.75197 0.04724,
        -0.72835 1.43701 0.04724,
        -0.64961 1.43701 0.04724 ] }
    coordIndex [
        0 1 3 2 -1,
        4 5 7 6 -1,
        0 1 5 4 -1,
        2 3 7 6 -1,
        0 2 6 4 -1,
        1 3 7 5 -1,
        2 3 1 0 -1,
        6 7 5 4 -1,
        4 5 1 0 -1,
        6 7 3 2 -1,
        4 6 2 0 -1,
        5 7 3 1 -1 ]
  }
}
Shape {
  appearance Appearance { material Material { diffuseColor 0.83 0.68 0.21 shininess 0.6 } }
  geometry IndexedFaceSet {
    solid FALSE
    creaseAngle 0.5
    coord Coordinate { point [
        -0.53150 1.75197 0.00000,
        -0.45276 1.75197 0.00000,
        -0.53150 1.43701 0.00000,
        -0.45276 1.43701 0.00000,
        -0.53150 1.75197 0.04724,
        -0.45276 1.75197 0.04724,
        -0.53150 1.43701 0.04724,
        -0.45276 1.43701 0.04724 ] }
    coordIndex [
        0 1 3 2 -1,
        4 5 7 6 -1,
        0 1 5 4 -1,
        2 3 7 6 -1,
        0 2 6 4 -1,
        1 3 7 5 -1,
        2 3 1 0 -1,
        6 7 5 4 -1,
        4 5 1 0 -1,
        6 7 3 2 -1,
        4 6 2 0 -1,
        5 7 3 1 -1 ]
  }
}
Shape {
  appearance Appearance { material Material { diffuseColor 0.83 0.68 0.21 shininess 0.6 } }
  geometry IndexedFaceSet {
    solid FALSE
    creaseAngle 0.5
    coord Coordinate { point [
        -0.33465 1.75197 0.00000,
        -0.25591 1.75197 0.00000,
        -0.33465 1.43701 0.00000,
        -0.25591 1.43701 0.00000,
        -0.33465 1.75197 0.04724,
        -0.25591 1.75197 0.04724,
        -0.33465 1.43701 0.04724,
        -0.25591 1.43701 0.04724 ] }
    coordIndex [
        0 1 3 2 -1,
        4 5 7 6 -1,
        0 1 5 4 -1,
        2 3 7 6 -1,
        0 2 6 4 -1,
        1 3 7 5 -1,
        2 3 1 0 -1,
        6 7 5 4 -1,
        4 5 1 0 -1,
        6 7 3 2 -1,
        4 6 2 0 -1,
        5 7 3 1 -1 ]
  }
}
Shape {
  appearance Appearance { material Material { diffuseColor 0.83 0.68 0.21 shininess 0.6 } }
  geometry IndexedFaceSet {
    solid FALSE
    creaseAngle 0.5
    coord Coordinate { point [
        -0.13780 1.75197 0.00000,
        -0.05906 1.75197 0.00000,
        -0.13780 1.43701 0.00000,
        -0.05906 1.43701 0.00000,
        -0.13780 1.75197 0.04724,
        -0.05906 1.75197 0.04724,
        -0.13780 1.43701 0.04724,
        -0.05906 1.43701 0.04724 ] }
    coordIndex [
        0 1 3 2 -1,
        4 5 7 6 -1,
        0 1 5 4 -1,
        2 3 7 6 -1,
        0 2 6 4 -1,
        1 3 7 5 -1,
        2 3 1 0 -1,
        6 7 5 4 -1,
        4 5 1 0 -1,
        6 7 3 2 -1,
        4 6 2 0 -1,
        5 7 3 1 -1 ]
  }
}
Shape {
  appearance Appearance { material Material { diffuseColor 0.83 0.68 0.21 shininess 0.6 } }
  geometry IndexedFaceSet {
    solid FALSE
    creaseAngle 0.5
    coord Coordinate { point [
        0.05906 1.75197 0.00000,
        0.13780 1.75197 0.00000,
        0.05906 1.43701 0.00000,
        0.13780 1.43701 0.00000,
        0.05906 1.75197 0.04724,
        0.13780 1.75197 0.04724,
        0.05906 1.43701 0.04724,
        0.13780 1.43701 0.04724 ] }
    coordIndex [
        0 1 3 2 -1,
        4 5 7 6 -1,
        0 1 5 4 -1,
        2 3 7 6 -1,
        0 2 6 4 -1,
        1 3 7 5 -1,
        2 3 1 0 -1,
        6 7 5 4 -1,
        4 5 1 0 -1,
        6 7 3 2 -1,
        4 6 2 0 -1,
        5 7 3 1 -1 ]
  }
}
Shape {
  appearance Appearance { material Material { diffuseColor 0.83 0.68 0.21 shininess 0.6 } }
  geometry IndexedFaceSet {
    solid FALSE
    creaseAngle 0.5
    coord Coordinate { point [
        0.25591 1.75197 0.00000,
        0.33465 1.75197 0.00000,
        0.25591 1.43701 0.00000,
        0.33465 1.43701 0.00000,
        0.25591 1.75197 0.04724,
        0.33465 1.75197 0.04724,
        0.25591 1.43701 0.04724,
        0.33465 1.43701 0.04724 ] }
    coordIndex [
        0 1 3 2 -1,
        4 5 7 6 -1,
        0 1 5 4 -1,
        2 3 7 6 -1,
        0 2 6 4 -1,
        1 3 7 5 -1,
        2 3 1 0 -1,
        6 7 5 4 -1,
        4 5 1 0 -1,
        6 7 3 2 -1,
        4 6 2 0 -1,
        5 7 3 1 -1 ]
  }
}
Shape {
  appearance Appearance { material Material { diffuseColor 0.83 0.68 0.21 shininess 0.6 } }
  geometry IndexedFaceSet {
    solid FALSE
    creaseAngle 0.5
    coord Coordinate { point [
        0.45276 1.75197 0.00000,
        0.53150 1.75197 0.00000,
        0.45276 1.43701 0.00000,
        0.53150 1.43701 0.00000,
        0.45276 1.75197 0.04724,
        0.53150 1.75197 0.04724,
        0.45276 1.43701 0.04724,
        0.53150 1.43701 0.04724 ] }
    coordIndex [
        0 1 3 2 -1,
        4 5 7 6 -1,
        0 1 5 4 -1,
        2 3 7 6 -1,
        0 2 6 4 -1,
        1 3 7 5 -1,
        2 3 1 0 -1,
        6 7 5 4 -1,
        4 5 1 0 -1,
        6 7 3 2 -1,
        4 6 2 0 -1,
        5 7 3 1 -1 ]
  }
}
Shape {
  appearance Appearance { material Material { diffuseColor 0.83 0.68 0.21 shininess 0.6 } }
  geometry IndexedFaceSet {
    solid FALSE
    creaseAngle 0.5
    coord Coordinate { point [
        0.64961 1.75197 0.00000,
        0.72835 1.75197 0.00000,
        0.64961 1.43701 0.00000,
        0.72835 1.43701 0.00000,
        0.64961 1.75197 0.04724,
        0.72835 1.75197 0.04724,
        0.64961 1.43701 0.04724,
        0.72835 1.43701 0.04724 ] }
    coordIndex [
        0 1 3 2 -1,
        4 5 7 6 -1,
        0 1 5 4 -1,
        2 3 7 6 -1,
        0 2 6 4 -1,
        1 3 7 5 -1,
        2 3 1 0 -1,
        6 7 5 4 -1,
        4 5 1 0 -1,
        6 7 3 2 -1,
        4 6 2 0 -1,
        5 7 3 1 -1 ]
  }
}
Shape {
  appearance Appearance { material Material { diffuseColor 0.83 0.68 0.21 shininess 0.6 } }
  geometry IndexedFaceSet {
    solid FALSE
    creaseAngle 0.5
    coord Coordinate { point [
        0.92520 1.75197 0.00000,
        1.00394 1.75197 0.00000,
        0.92520 1.43701 0.00000,
        1.00394 1.43701 0.00000,
        0.92520 1.75197 0.04724,
        1.00394 1.75197 0.04724,
        0.92520 1.43701 0.04724,
        1.00394 1.43701 0.04724 ] }
    coordIndex [
        0 1 3 2 -1,
        4 5 7 6 -1,
        0 1 5 4 -1,
        2 3 7 6 -1,
        0 2 6 4 -1,
        1 3 7 5 -1,
        2 3 1 0 -1,
        6 7 5 4 -1,
        4 5 1 0 -1,
        6 7 3 2 -1,
        4 6 2 0 -1,
        5 7 3 1 -1 ]
  }
}
Shape {
  appearance Appearance { material Material { diffuseColor 0.83 0.68 0.21 shininess 0.6 } }
  geometry IndexedFaceSet {
    solid FALSE
    creaseAngle 0.5
    coord Coordinate { point [
        1.24016 1.75197 0.00000,
        1.31890 1.75197 0.00000,
        1.24016 1.43701 0.00000,
        1.31890 1.43701 0.00000,
        1.24016 1.75197 0.04724,
        1.31890 1.75197 0.04724,
        1.24016 1.43701 0.04724,
        1.31890 1.43701 0.04724 ] }
    coordIndex [
        0 1 3 2 -1,
        4 5 7 6 -1,
        0 1 5 4 -1,
        2 3 7 6 -1,
        0 2 6 4 -1,
        1 3 7 5 -1,
        2 3 1 0 -1,
        6 7 5 4 -1,
        4 5 1 0 -1,
        6 7 3 2 -1,
        4 6 2 0 -1,
        5 7 3 1 -1 ]
  }
}
Shape {
  appearance Appearance { material Material { diffuseColor 0.55 0.56 0.58 shininess 0.6 } }
  geometry IndexedFaceSet {
    solid FALSE
    creaseAngle 0.5
    coord Coordinate { point [
        -1.81890 1.46850 -0.94488,
        -1.58268 1.46850 -0.94488,
        -1.81890 0.99606 -0.94488,
        -1.58268 0.99606 -0.94488,
        -1.81890 1.46850 0.11811,
        -1.58268 1.46850 0.11811,
        -1.81890 0.99606 0.11811,
        -1.58268 0.99606 0.11811 ] }
    coordIndex [
        0 1 3 2 -1,
        4 5 7 6 -1,
        0 1 5 4 -1,
        2 3 7 6 -1,
        0 2 6 4 -1,
        1 3 7 5 -1,
        2 3 1 0 -1,
        6 7 5 4 -1,
        4 5 1 0 -1,
        6 7 3 2 -1,
        4 6 2 0 -1,
        5 7 3 1 -1 ]
  }
}
Shape {
  appearance Appearance { material Material { diffuseColor 0.55 0.56 0.58 shininess 0.6 } }
  geometry IndexedFaceSet {
    solid FALSE
    creaseAngle 0.5
    coord Coordinate { point [
        1.58268 1.46850 -0.94488,
        1.81890 1.46850 -0.94488,
        1.58268 0.99606 -0.94488,
        1.81890 0.99606 -0.94488,
        1.58268 1.46850 0.11811,
        1.81890 1.46850 0.11811,
        1.58268 0.99606 0.11811,
        1.81890 0.99606 0.11811 ] }
    coordIndex [
        0 1 3 2 -1,
        4 5 7 6 -1,
        0 1 5 4 -1,
        2 3 7 6 -1,
        0 2 6 4 -1,
        1 3 7 5 -1,
        2 3 1 0 -1,
        6 7 5 4 -1,
        4 5 1 0 -1,
        6 7 3 2 -1,
        4 6 2 0 -1,
        5 7 3 1 -1 ]
  }
}
Shape {
  appearance Appearance { material Material { diffuseColor 0.55 0.56 0.58 shininess 0.6 } }
  geometry IndexedFaceSet {
    solid FALSE
    creaseAngle 0.5
    coord Coordinate { point [
        -1.81890 -0.17717 -0.94488,
        -1.58268 -0.17717 -0.94488,
        -1.81890 -0.64961 -0.94488,
        -1.58268 -0.64961 -0.94488,
        -1.81890 -0.17717 0.11811,
        -1.58268 -0.17717 0.11811,
        -1.81890 -0.64961 0.11811,
        -1.58268 -0.64961 0.11811 ] }
    coordIndex [
        0 1 3 2 -1,
        4 5 7 6 -1,
        0 1 5 4 -1,
        2 3 7 6 -1,
        0 2 6 4 -1,
        1 3 7 5 -1,
        2 3 1 0 -1,
        6 7 5 4 -1,
        4 5 1 0 -1,
        6 7 3 2 -1,
        4 6 2 0 -1,
        5 7 3 1 -1 ]
  }
}
Shape {
  appearance Appearance { material Material { diffuseColor 0.55 0.56 0.58 shininess 0.6 } }
  geometry IndexedFaceSet {
    solid FALSE
    creaseAngle 0.5
    coord Coordinate { point [
        1.58268 -0.17717 -0.94488,
        1.81890 -0.17717 -0.94488,
        1.58268 -0.64961 -0.94488,
        1.81890 -0.64961 -0.94488,
        1.58268 -0.17717 0.11811,
        1.81890 -0.17717 0.11811,
        1.58268 -0.64961 0.11811,
        1.81890 -0.64961 0.11811 ] }
    coordIndex [
        0 1 3 2 -1,
        4 5 7 6 -1,
        0 1 5 4 -1,
        2 3 7 6 -1,
        0 2 6 4 -1,
        1 3 7 5 -1,
        2 3 1 0 -1,
        6 7 5 4 -1,
        4 5 1 0 -1,
        6 7 3 2 -1,
        4 6 2 0 -1,
        5 7 3 1 -1 ]
  }
}
